<?xml version="1.0" encoding="UTF-8"?>
<svg version="1.1" xmlns="http://www.w3.org/2000/svg" width="512" height="512">
<path d="M0 0 C10.50721517 4.99193365 16.50794509 15.97800867 22.37988281 25.53295898 C24.25396725 28.52860453 25.5527159 30.29035226 28.5390625 32.28125 C34.58881178 32.53183133 40.04000117 30.58085746 45.5390625 28.28125 C49.12578807 37.92057497 48.71027879 48.89601335 44.5390625 58.28125 C42.52856189 62.21594186 40.56583101 66.04290156 37.5390625 69.28125 C34.41333008 69.91577148 34.41333008 69.91577148 31.5390625 70.28125 C31.97661865 70.85456055 32.4141748 71.42787109 32.86499023 72.01855469 C34.90268823 74.68906651 36.93962772 77.36015599 38.9765625 80.03125 C39.7085083 80.9903125 40.4404541 81.949375 41.19458008 82.9375 C45.73185038 88.88867762 50.22949084 94.86366924 54.64453125 100.90625 C56.76771302 103.56788818 59.11798662 105.89070127 61.5390625 108.28125 C61.51078369 106.99577271 61.51078369 106.99577271 61.48193359 105.68432617 C61.3811933 97.07435212 61.69756095 88.54910119 62.265625 79.95703125 C62.33682556 78.87348358 62.40802612 77.78993591 62.48138428 76.67355347 C62.781972 72.16237965 63.08923339 67.6517588 63.40820312 63.1418457 C63.64163379 59.81000254 63.86083578 56.47746043 64.078125 53.14453125 C64.15406891 52.12684158 64.23001282 51.10915192 64.30825806 50.06062317 C64.36847137 49.11160629 64.42868469 48.16258942 64.49072266 47.18481445 C64.54845856 46.35593216 64.60619446 45.52704987 64.66567993 44.67304993 C64.51730676 41.87028459 63.59718343 39.86495062 62.5390625 37.28125 C62.66959343 29.05780134 65.61352582 21.87037283 68.5390625 14.28125 C70.5190625 14.28125 72.4990625 14.28125 74.5390625 14.28125 C76.00633048 18.09614674 74.97242669 20.57136622 73.5390625 24.28125 C81.10828008 20.11045664 83.90202385 13.83169802 87.5390625 6.28125 C89.1890625 6.61125 90.8390625 6.94125 92.5390625 7.28125 C92.5390625 8.93125 92.5390625 10.58125 92.5390625 12.28125 C94.0240625 10.30125 94.0240625 10.30125 95.5390625 8.28125 C97.5190625 8.77625 97.5190625 8.77625 99.5390625 9.28125 C98.6640625 15.03125 98.6640625 15.03125 97.5390625 17.28125 C98.0959375 16.78625 98.6528125 16.29125 99.2265625 15.78125 C101.92069233 14.03370633 103.39281257 14.01906251 106.5390625 14.28125 C106.9140625 16.46875 106.9140625 16.46875 106.5390625 19.28125 C104.69944602 21.27147836 102.74720102 22.67114899 100.5390625 24.28125 C103.1790625 24.28125 105.8190625 24.28125 108.5390625 24.28125 C108.8690625 25.60125 109.1990625 26.92125 109.5390625 28.28125 C107.16093421 29.78739792 104.78393136 31.16832906 102.2265625 32.34765625 C96.4849156 34.99966694 90.81520698 37.63490453 87.5390625 43.28125 C86.67975902 47.34095148 87.13625499 51.17427451 87.5390625 55.28125 C87.69789593 57.10014898 87.85533303 58.91917019 88.01171875 60.73828125 C88.34957799 64.59665294 88.71742107 68.45068396 89.1015625 72.3046875 C89.45324726 75.97951849 89.63794046 79.58568613 89.5390625 83.28125 C90.63138184 82.79269531 91.72370117 82.30414063 92.84912109 81.80078125 C98.11680514 79.84811641 103.01177753 79.8746876 108.578125 79.96875 C110.29704453 79.98349365 110.29704453 79.98349365 112.0506897 79.99853516 C134.10510222 80.30130208 156.15491253 81.5489303 178.18457031 82.57226562 C201.04567189 83.62950134 223.87742273 84.47468997 246.765625 84.53125 C248.21617342 84.53901459 248.21617342 84.53901459 249.69602585 84.54693604 C252.41550597 84.55856578 255.13452121 84.55556036 257.85400391 84.546875 C258.64966892 84.55083282 259.44533394 84.55479065 260.26511002 84.55886841 C264.72185876 84.5215625 268.38218399 84.0861866 272.5390625 82.28125 C274.84556098 79.99493286 274.84556098 79.99493286 276.7890625 77.09375 C277.35367188 76.3035144 277.35367188 76.3035144 277.9296875 75.49731445 C279.15198836 73.77116631 280.3474172 72.02867866 281.5390625 70.28125 C281.94705078 69.69053711 282.35503906 69.09982422 282.77539062 68.49121094 C289.09278885 59.32159145 294.89370957 49.87531039 300.5390625 40.28125 C301.68237891 38.3422637 302.82787213 36.40455751 303.9765625 34.46875 C304.65525391 33.31439453 304.65525391 33.31439453 305.34765625 32.13671875 C306.5390625 30.28125 306.5390625 30.28125 308.5390625 28.28125 C310.6328125 28.05078125 310.6328125 28.05078125 313.0390625 28.09375 C314.23015625 28.10341797 314.23015625 28.10341797 315.4453125 28.11328125 C317.5390625 28.28125 317.5390625 28.28125 319.5390625 29.28125 C318.78517173 57.36368103 311.56970951 84.73851172 303.3515625 111.46875 C303.0309082 112.54431152 302.71025391 113.61987305 302.37988281 114.72802734 C302.06760742 115.70852051 301.75533203 116.68901367 301.43359375 117.69921875 C301.16393799 118.56313232 300.89428223 119.4270459 300.61645508 120.31713867 C299.5390625 122.28125 299.5390625 122.28125 297.74633789 123.23706055 C294.63238187 123.29940166 292.98711232 122.16816823 290.328125 120.5703125 C288.83152344 119.69246094 288.83152344 119.69246094 287.3046875 118.796875 C286.26828125 118.17296875 285.231875 117.5490625 284.1640625 116.90625 C282.11962968 115.68163986 280.07028271 114.46518868 278.015625 113.2578125 C277.10893066 112.71205566 276.20223633 112.16629883 275.26806641 111.60400391 C269.92775457 109.01554358 265.96842322 109.10865344 260.328125 110.6796875 C258.58402344 111.15148437 258.58402344 111.15148437 256.8046875 111.6328125 C255.00257813 112.13941406 255.00257813 112.13941406 253.1640625 112.65625 C250.78255549 113.31463639 248.39976644 113.96840565 246.015625 114.6171875 C244.96455566 114.91157715 243.91348633 115.2059668 242.83056641 115.50927734 C239.12131881 116.37922549 235.31954061 116.80869024 231.5390625 117.28125 C231.2090625 124.54125 230.8790625 131.80125 230.5390625 139.28125 C200.53242467 135.32971174 170.5281571 131.36403015 140.5390625 127.28125 C141.03792969 128.32796875 141.53679687 129.3746875 142.05078125 130.453125 C145.51176357 137.73133086 148.96366827 145.01247348 152.328125 152.3359375 C160.15796525 169.36503184 168.31776596 186.21855679 176.56021118 203.05131531 C177.18589493 204.32915642 177.18589493 204.32915642 177.82421875 205.6328125 C178.2349765 206.47161453 178.64573425 207.31041656 179.06893921 208.17463684 C183.64000925 217.51750335 188.12706314 226.89981723 192.58251953 236.29833984 C193.46426894 238.12620322 194.38848309 239.93341971 195.31640625 241.73828125 C196.5390625 244.28125 196.5390625 244.28125 196.5390625 246.28125 C201.01778039 246.46102986 205.4970164 246.62375096 209.9765625 246.78125 C210.66980621 246.80658813 211.36304993 246.83192627 212.07730103 246.85803223 C221.2643777 247.18590399 230.424739 247.30248957 239.6171875 247.171875 C240.54197403 247.16124023 241.46676056 247.15060547 242.41957092 247.13964844 C247.94105856 247.0762946 247.94105856 247.0762946 253.4616394 246.96118164 C256.04357469 246.89505737 258.62447072 246.85911904 261.20703125 246.828125 C261.97658142 246.79914124 262.74613159 246.77015747 263.53900146 246.74029541 C267.52185192 246.72052691 269.336619 247.12677835 272.5402832 249.57128906 C275.0715635 253.00321911 274.94773801 255.11275981 274.5390625 259.28125 C260.40363612 267.70321293 246.10342699 273.99114112 230.5390625 279.28125 C229.41371094 279.66555176 228.28835938 280.04985352 227.12890625 280.44580078 C186.24495396 294.28125 186.24495396 294.28125 175.5390625 294.28125 C175.49418701 293.30776611 175.44931152 292.33428223 175.40307617 291.33129883 C175.23230849 287.7056934 175.04351045 284.08120965 174.84936523 280.45678711 C174.76797477 278.89062748 174.69141885 277.32420858 174.61987305 275.75756836 C174.51593295 273.50027622 174.39440257 271.24450063 174.26953125 268.98828125 C174.2271357 267.94423882 174.2271357 267.94423882 174.18388367 266.87910461 C173.82431604 260.91588446 171.63440219 257.36876329 167.83984375 252.94921875 C167.10991211 252.09360352 167.10991211 252.09360352 166.36523438 251.22070312 C165.86572266 250.64255859 165.36621094 250.06441406 164.8515625 249.46875 C164.08489258 248.5725293 164.08489258 248.5725293 163.30273438 247.65820312 C162.05144431 246.19641567 160.79570277 244.73844067 159.5390625 243.28125 C158.45367187 243.83554687 157.36828125 244.38984375 156.25 244.9609375 C154.80479654 245.69292367 153.35947792 246.42468248 151.9140625 247.15625 C151.20121094 247.52105469 150.48835938 247.88585937 149.75390625 248.26171875 C149.05136719 248.61621094 148.34882813 248.97070312 147.625 249.3359375 C146.9861084 249.66062012 146.3472168 249.98530273 145.68896484 250.31982422 C143.03157169 251.5081974 140.30360764 252.37449474 137.5390625 253.28125 C137.14562149 252.11638817 137.14562149 252.11638817 136.74423218 250.92799377 C134.24550298 243.53067918 131.74565067 236.13374547 129.24460411 228.73721409 C127.95950944 224.9365833 126.67481662 221.13581777 125.39111328 217.3347168 C124.14719302 213.65146795 122.90212446 209.96860895 121.65633011 206.28599358 C121.18640667 204.89626215 120.71686491 203.50640158 120.24775314 202.11639595 C116.76763594 191.80584601 113.18169109 181.53549354 109.5390625 171.28125 C109.4079155 172.34756149 109.27676849 173.41387299 109.14164734 174.51249695 C107.90390077 184.56360667 106.65387746 194.61312333 105.39183331 204.66121197 C104.74340521 209.82702803 104.09930729 214.99330736 103.46508789 220.16088867 C102.8528181 225.14830913 102.22919715 230.13419057 101.5976963 235.1192112 C101.35881955 237.02087867 101.1240303 238.92306421 100.89340782 240.82575035 C100.5695623 243.4916864 100.23120189 246.15540633 99.8894043 248.8190918 C99.75129585 249.9983725 99.75129585 249.9983725 99.61039734 251.20147705 C99.03525655 255.54711504 98.21975301 258.77615167 95.5390625 262.28125 C92.1789787 264.52130587 91.05922086 264.53749793 87.12910461 264.5597229 C86.00589813 264.57088638 84.88269165 264.58204987 83.72544861 264.59355164 C81.87615501 264.59679192 81.87615501 264.59679192 79.98950195 264.60009766 C78.69183899 264.61014328 77.39417603 264.6201889 76.05718994 264.63053894 C72.49757635 264.65787095 68.9380024 264.67299775 65.3783114 264.68596697 C61.65867066 264.70158356 57.93911106 264.72837844 54.2195282 264.7539978 C47.17542269 264.80081173 40.13130196 264.83754315 33.08712023 264.87067068 C25.06780614 264.90887363 17.04857348 264.95828855 9.02932799 265.00865483 C-7.46736872 265.11201354 -23.96411058 265.20126109 -40.4609375 265.28125 C-38.88310503 266.87267633 -37.3032903 268.46213747 -35.72265625 270.05078125 C-34.84311279 270.93612549 -33.96356934 271.82146973 -33.05737305 272.73364258 C-30.24279596 275.4952892 -27.31840683 278.0745578 -24.32421875 280.63671875 C-21.87873966 282.79509757 -19.61828712 285.11126663 -17.33496094 287.43847656 C-15.52821663 289.21509277 -13.66721889 290.87585021 -11.74609375 292.52734375 C-7.52800971 296.19528503 -3.45401403 299.99786251 0.6015625 303.84375 C2.10001464 305.25937478 3.59871728 306.67473445 5.09765625 308.08984375 C5.84257324 308.79351074 6.58749023 309.49717773 7.35498047 310.22216797 C10.61416257 313.29481964 13.88767698 316.35196291 17.1640625 319.40625 C17.77451416 319.97545166 18.38496582 320.54465332 19.01391602 321.13110352 C20.24127748 322.27533109 21.4687347 323.41945594 22.69628906 324.56347656 C25.81200156 327.46784237 28.92540361 330.37468299 32.0390625 333.28125 C33.28905168 334.44792826 34.53905167 335.61459493 35.7890625 336.78125 C43.2890625 343.78125 43.2890625 343.78125 45.16455078 345.53173828 C46.41287987 346.69682375 47.66125217 347.86186291 48.90966797 349.02685547 C52.06059138 351.96733369 55.21072816 354.90864654 58.359375 357.8515625 C65.02380764 364.07880154 71.69863681 370.29374459 78.41650391 376.46337891 C80.83830579 378.69137412 83.23952005 380.92658153 85.5390625 383.28125 C86.3228125 382.95125 87.1065625 382.62125 87.9140625 382.28125 C93.91413236 380.62605831 99.25709573 380.14026661 104.9140625 382.96875 C109.51417422 387.02122937 112.241877 390.24995787 112.8515625 396.46875 C112.41995536 401.73435712 110.97521863 405.97433293 107.06640625 409.67578125 C102.29059247 412.87094745 97.11948156 413.19440948 91.5390625 412.28125 C87.17033942 410.09688846 84.05695039 407.47772982 81.5390625 403.28125 C80.04345479 397.48440551 80.52425648 392.85159606 82.5390625 387.28125 C78.99163678 383.63405293 75.39541768 380.10283717 71.5390625 376.78125 C68.30949883 373.99885668 65.30583597 371.07105571 62.3203125 368.03125 C60.45516576 366.19882513 58.51978504 364.48771865 56.5390625 362.78125 C53.30949883 359.99885668 50.30583597 357.07105571 47.3203125 354.03125 C45.45516576 352.19882513 43.51978504 350.48771865 41.5390625 348.78125 C38.34310903 346.02781316 35.36676187 343.13447821 32.41381836 340.12475586 C30.60682562 338.34788359 28.74561316 336.68688127 26.82421875 335.03515625 C22.60613471 331.36721497 18.53213903 327.56463749 14.4765625 323.71875 C12.97811036 322.30312522 11.47940772 320.88776555 9.98046875 319.47265625 C9.23555176 318.76898926 8.49063477 318.06532227 7.72314453 317.34033203 C4.46396264 314.26768056 1.19047722 311.21050549 -2.0859375 308.15625 C-2.9994397 307.3046228 -2.9994397 307.3046228 -3.93139648 306.43579102 C-5.15732046 305.29305764 -6.38331307 304.15039787 -7.609375 303.0078125 C-9.4986268 301.24610513 -11.38626208 299.48268131 -13.2734375 297.71875 C-18.14396887 293.16686315 -23.01620788 288.61687153 -27.90625 284.0859375 C-28.45531006 283.57595215 -29.00437012 283.0659668 -29.57006836 282.54052734 C-30.65864838 281.53924752 -31.75581512 280.5472188 -32.86157227 279.56494141 C-35.45285813 277.24892321 -37.60496922 275.09284362 -39.73046875 272.3125 C-43.43104627 267.8238949 -45.90026122 265.61680837 -51.67285156 264.86035156 C-59.94896571 264.42154941 -68.19682385 264.73384616 -76.4609375 265.28125 C-76.87118164 266.27189453 -77.28142578 267.26253906 -77.70410156 268.28320312 C-79.70574769 273.11614756 -81.70824004 277.94874114 -83.7109375 282.78125 C-84.08486633 283.68361389 -84.45879517 284.58597778 -84.84405518 285.51568604 C-89.43632015 296.59611855 -94.0375766 307.67273446 -98.65625 318.7421875 C-99.08568909 319.77144348 -99.51512817 320.80069946 -99.95758057 321.86114502 C-100.82124183 323.93103301 -101.6849096 326.00091827 -102.54858398 328.07080078 C-109.93521549 345.77462194 -117.28590261 363.49040185 -124.4609375 381.28125 C-123.67203125 382.07015625 -122.883125 382.8590625 -122.0703125 383.671875 C-117.67112013 388.07106737 -115.88485807 390.72050263 -115.40234375 396.97265625 C-115.51230313 401.30505582 -116.90048823 404.67929942 -119.9296875 407.7890625 C-124.7204046 411.89874629 -127.70325886 412.64843538 -133.85546875 412.55078125 C-137.81911561 412.14074882 -140.55952788 411.02873869 -143.4609375 408.28125 C-146.88955255 403.5910674 -148.29259567 399.10285717 -147.4609375 393.28125 C-146.02847896 388.78044832 -144.19380519 385.35971634 -140.1484375 382.78125 C-136.26460431 381.20138565 -133.60925419 380.9426119 -129.4609375 381.28125 C-129.28398346 380.72908813 -129.10702942 380.17692627 -128.92471313 379.60803223 C-127.18097508 374.26016228 -125.22389778 369.05991189 -123.046875 363.875 C-122.71999695 363.08912003 -122.3931189 362.30324005 -122.05633545 361.49354553 C-120.98579711 358.92154937 -119.9108813 356.35140766 -118.8359375 353.78125 C-118.07894074 351.9648972 -117.32227343 350.14840705 -116.56591797 348.33178711 C-114.99111022 344.5499536 -113.41487944 340.76871745 -111.83789062 336.98779297 C-109.53166469 331.45508863 -107.2366772 325.91777931 -104.9453125 320.37890625 C-97.19473566 301.64633696 -89.41006604 282.93062416 -81.4609375 264.28125 C-82.28295654 264.29696045 -83.10497559 264.3126709 -83.9519043 264.32885742 C-87.68401178 264.39130073 -91.41600922 264.43027136 -95.1484375 264.46875 C-96.44201172 264.49388672 -97.73558594 264.51902344 -99.06835938 264.54492188 C-100.31552734 264.55458984 -101.56269531 264.56425781 -102.84765625 264.57421875 C-103.99451904 264.5899292 -105.14138184 264.60563965 -106.32299805 264.62182617 C-109.8977821 264.23383708 -111.64741599 263.50095688 -114.4609375 261.28125 C-116.79691758 257.89420815 -117.90905129 255.14661656 -118.49159241 251.08876038 C-118.64428085 250.06403122 -118.7969693 249.03930206 -118.95428467 247.98352051 C-119.10867004 246.87013306 -119.26305542 245.75674561 -119.42211914 244.60961914 C-119.59490891 243.42859116 -119.76769867 242.24756317 -119.94572449 241.03074646 C-120.41632698 237.80040078 -120.87714204 234.56883558 -121.33397985 231.33652043 C-121.81556108 227.94814715 -122.31063863 224.56174952 -122.80455017 221.17515564 C-123.73838991 214.75921074 -124.66185593 208.34182345 -125.58079761 201.92372936 C-127.22576663 190.43554558 -128.88329945 178.94918425 -130.55217832 167.46444982 C-131.04128646 164.09575644 -131.52756868 160.72669968 -132.00764656 157.35670662 C-132.54349238 153.59787653 -133.08575689 149.84002057 -133.62915039 146.08227539 C-133.78556 144.97091217 -133.9419696 143.85954895 -134.1031189 142.71450806 C-135.32834716 132.93282919 -135.32834716 132.93282919 -140.40234375 124.765625 C-140.98145508 124.15855713 -141.56056641 123.55148926 -142.15722656 122.92602539 C-142.77307617 122.30074951 -143.38892578 121.67547363 -144.0234375 121.03125 C-145.3023375 119.71374846 -146.57968083 118.39473407 -147.85546875 117.07421875 C-148.47631348 116.43274902 -149.0971582 115.7912793 -149.73681641 115.13037109 C-151.25877963 113.49806446 -152.66244454 111.83975138 -154.03515625 110.08203125 C-157.66736197 105.15670402 -157.66736197 105.15670402 -163.01953125 102.81640625 C-164.73589767 102.87506365 -166.45149594 102.98743009 -168.16015625 103.16015625 C-170.4609375 103.28125 -170.4609375 103.28125 -173.9609375 101.84375 C-177.37698341 98.34230294 -178.35117203 95.14470456 -178.4609375 90.28125 C-177.34451286 86.93197609 -176.11147947 85.00407441 -173.7734375 82.40625 C-170.36855346 80.74981993 -167.13385492 80.7335983 -163.4609375 81.28125 C-159.87540869 82.91812185 -158.66778695 83.97097583 -156.4609375 87.28125 C-156.265625 89.65625 -156.265625 89.65625 -156.3359375 92.28125 C-156.35398438 93.1475 -156.37203125 94.01375 -156.390625 94.90625 C-156.41382813 95.69 -156.43703125 96.47375 -156.4609375 97.28125 C-156.78556869 100.28702283 -156.78556869 100.28702283 -154.95703125 102.04296875 C-154.27769531 102.67847656 -153.59835938 103.31398438 -152.8984375 103.96875 C-150.1309462 106.6341019 -147.47655627 109.31387844 -144.9609375 112.21875 C-144.41880615 112.83395508 -143.8766748 113.44916016 -143.31811523 114.08300781 C-141.4609375 116.28125 -141.4609375 116.28125 -139.82617188 118.57421875 C-136.11079398 123.46524544 -133.36579101 125.82117492 -127.2109375 126.81640625 C-124.96451498 127.03316632 -122.71372357 127.20827317 -120.4609375 127.34375 C-118.72650391 127.4974707 -118.72650391 127.4974707 -116.95703125 127.65429688 C-114.12587639 127.8999756 -111.29727847 128.10781158 -108.4609375 128.28125 C-108.86580444 123.65441687 -109.27485222 119.02797938 -109.68774414 114.40185547 C-109.82756088 112.82871461 -109.96624345 111.25547252 -110.10375977 109.68212891 C-110.30185168 107.41801697 -110.50404675 105.15430289 -110.70703125 102.890625 C-110.7674913 102.18943542 -110.82795135 101.48824585 -110.89024353 100.76580811 C-111.28476771 95.94631522 -111.28476771 95.94631522 -112.4609375 91.28125 C-119.81131199 86.03098251 -129.82023706 86.49565944 -138.4609375 86.28125 C-138.7909375 84.63125 -139.1209375 82.98125 -139.4609375 81.28125 C-135.9959375 80.29125 -135.9959375 80.29125 -132.4609375 79.28125 C-133.30978516 78.91773438 -133.30978516 78.91773438 -134.17578125 78.546875 C-134.90925781 78.21171875 -135.64273438 77.8765625 -136.3984375 77.53125 C-137.12933594 77.20640625 -137.86023438 76.8815625 -138.61328125 76.546875 C-140.4609375 75.28125 -140.4609375 75.28125 -141.27734375 73.203125 C-141.33792969 72.56890625 -141.39851563 71.9346875 -141.4609375 71.28125 C-140.4609375 70.28125 -140.4609375 70.28125 -138.61328125 70.18359375 C-136.5625 70.21614583 -134.51171875 70.24869792 -132.4609375 70.28125 C-134.1109375 68.96125 -135.7609375 67.64125 -137.4609375 66.28125 C-136.8009375 64.96125 -136.1409375 63.64125 -135.4609375 62.28125 C-133.1509375 62.94125 -130.8409375 63.60125 -128.4609375 64.28125 C-129.1209375 63.62125 -129.7809375 62.96125 -130.4609375 62.28125 C-130.0859375 59.65625 -130.0859375 59.65625 -129.4609375 57.28125 C-125.93837843 58.38204971 -123.47955389 59.99178704 -120.6484375 62.28125 C-116.68252068 65.37844218 -113.38536856 66.40188731 -108.4609375 67.28125 C-108.9559375 66.724375 -109.4509375 66.1675 -109.9609375 65.59375 C-111.70848117 62.89962017 -111.72312499 61.42749993 -111.4609375 58.28125 C-109.20703125 57.56640625 -109.20703125 57.56640625 -106.4609375 57.28125 C-103.29493741 59.42241769 -100.95734637 62.40378459 -98.4609375 65.28125 C-97.87441406 65.90644531 -97.28789063 66.53164062 -96.68359375 67.17578125 C-93.63435293 70.71707561 -92.22466491 73.50493425 -91.7109375 78.15625 C-90.19929486 88.21242583 -86.83428439 97.84073289 -83.8359375 107.53125 C-83.21805347 109.54796381 -82.60086011 111.56488937 -81.984375 113.58203125 C-80.48451779 118.48424945 -78.97533036 123.38350361 -77.4609375 128.28125 C-77.40495895 127.69322601 -77.34898041 127.10520203 -77.29130554 126.49935913 C-76.70503627 120.36579023 -76.10207467 114.23402393 -75.48950195 108.10302734 C-75.26322999 105.81633615 -75.04118216 103.5292228 -74.82348633 101.24169922 C-74.50938357 97.94898646 -74.17999645 94.65810334 -73.84765625 91.3671875 C-73.75377121 90.34821381 -73.65988617 89.32924011 -73.56315613 88.27938843 C-72.79608184 80.90224922 -71.35202658 75.25185642 -65.4609375 70.28125 C-57.89019569 67.7576694 -50.46233822 69.96004379 -42.9609375 71.78125 C-41.44113281 72.13896484 -41.44113281 72.13896484 -39.890625 72.50390625 C-37.41207324 73.08847034 -34.93574416 73.68106469 -32.4609375 74.28125 C-32.69041561 72.04987737 -32.94539306 69.82111844 -33.2109375 67.59375 C-33.41976562 65.73169922 -33.41976562 65.73169922 -33.6328125 63.83203125 C-34.53590942 59.95979023 -35.82415027 58.18847694 -38.4609375 55.28125 C-38.7703125 54.53875 -39.0796875 53.79625 -39.3984375 53.03125 C-40.35280594 50.99688406 -40.35280594 50.99688406 -42.9609375 50.65625 C-43.7859375 50.5325 -44.6109375 50.40875 -45.4609375 50.28125 C-50.27847975 45.46370775 -49.6179822 32.9913867 -49.8359375 26.34375 C-49.72893018 20.9064406 -48.98474639 16.55153554 -45.4609375 12.28125 C-40.21897363 8.50215976 -33.69572932 7.81913688 -27.3984375 8.71875 C-26.7590625 8.904375 -26.1196875 9.09 -25.4609375 9.28125 C-25.2546875 8.724375 -25.0484375 8.1675 -24.8359375 7.59375 C-19.50975955 -1.36391292 -9.51486535 -2.7789448 0 0 Z M-7.4609375 20.28125 C-7.48777737 23.26047593 -7.50769787 26.23946295 -7.5234375 29.21875 C-7.53181641 30.06888672 -7.54019531 30.91902344 -7.54882812 31.79492188 C-7.55205078 32.60380859 -7.55527344 33.41269531 -7.55859375 34.24609375 C-7.56383057 34.9949585 -7.56906738 35.74382324 -7.57446289 36.51538086 C-7.65435502 38.30792739 -7.65435502 38.30792739 -6.4609375 39.28125 C-6.42000813 41.61422433 -6.41852027 43.94830225 -6.4609375 46.28125 C-7.3890625 46.61125 -8.3171875 46.94125 -9.2734375 47.28125 C-13.11363339 49.69078468 -13.65399939 51.35647299 -14.91796875 55.5390625 C-15.4609375 57.28125 -15.4609375 57.28125 -16.4609375 58.28125 C-16.62111632 62.44589926 -16.44341946 66.22851192 -15.4609375 70.28125 C-11.12932734 68.8134484 -7.99429726 66.58156557 -4.3984375 63.78125 C1.90496913 58.8847828 1.90496913 58.8847828 5.5390625 57.28125 C2.30161496 37.62212588 2.30161496 37.62212588 -6.4609375 20.28125 C-6.7909375 20.28125 -7.1209375 20.28125 -7.4609375 20.28125 Z M21.5390625 111.28125 C21.41032513 120.69338252 21.74083902 129.90212413 22.5390625 139.28125 C26.69465372 140.82794987 30.29206427 141.62320314 34.7265625 141.71875 C35.75136719 141.75871094 36.77617187 141.79867187 37.83203125 141.83984375 C40.77821847 141.54628929 40.77821847 141.54628929 42.40234375 138.75390625 C42.77746094 137.93792969 43.15257812 137.12195313 43.5390625 136.28125 C42.77722656 135.39824219 42.01539063 134.51523438 41.23046875 133.60546875 C40.18716995 132.3935132 39.14422639 131.1812518 38.1015625 129.96875 C37.56039795 129.33952637 37.0192334 128.71030273 36.46166992 128.06201172 C32.27562466 123.17839504 28.20103038 118.21891794 24.18359375 113.1953125 C23.64089844 112.56367188 23.09820312 111.93203125 22.5390625 111.28125 C22.2090625 111.28125 21.8790625 111.28125 21.5390625 111.28125 Z M-131.4609375 130.28125 C-129.96246828 141.91222537 -128.45577822 153.54147474 -126.8359375 165.15625 C-126.71307373 166.05883545 -126.59020996 166.9614209 -126.46362305 167.89135742 C-126.23940832 171.91657142 -126.23940832 171.91657142 -124.4609375 175.28125 C-122.68022504 175.36851223 -120.8961061 175.38824041 -119.11328125 175.37890625 C-118.03369141 175.37568359 -116.95410156 175.37246094 -115.84179688 175.36914062 C-114.70548828 175.36076172 -113.56917969 175.35238281 -112.3984375 175.34375 C-111.25826172 175.33923828 -110.11808594 175.33472656 -108.94335938 175.33007812 C-106.11583399 175.31824747 -103.2884111 175.3017641 -100.4609375 175.28125 C-100.60192871 174.44053955 -100.74291992 173.5998291 -100.88818359 172.73364258 C-101.42191242 169.54853604 -101.95485555 166.36329921 -102.48730469 163.17797852 C-102.71584186 161.8117167 -102.94467251 160.44550393 -103.17382812 159.0793457 C-104.67027023 150.15648147 -106.10422488 141.22667759 -107.4609375 132.28125 C-115.3809375 131.62125 -123.3009375 130.96125 -131.4609375 130.28125 Z M23.5390625 144.28125 C23.38931011 151.33776252 23.38931011 151.33776252 24.5390625 158.28125 C28.3615858 157.00707557 29.40226965 155.67064556 31.5390625 152.28125 C31.87372139 148.57184225 31.87372139 148.57184225 31.5390625 145.28125 C28.8990625 144.95125 26.2590625 144.62125 23.5390625 144.28125 Z M-48.4609375 157.28125 C-48.96448617 159.71806587 -49.46390506 162.15560439 -49.9609375 164.59375 C-50.10402344 165.28404297 -50.24710938 165.97433594 -50.39453125 166.68554688 C-50.98718794 169.60649773 -51.4609375 172.29233122 -51.4609375 175.28125 C-48.8209375 175.28125 -46.1809375 175.28125 -43.4609375 175.28125 C-44.4509375 169.34125 -45.4409375 163.40125 -46.4609375 157.28125 C-47.1209375 157.28125 -47.7809375 157.28125 -48.4609375 157.28125 Z M-124.4609375 179.28125 C-123.77040282 184.22965717 -123.07777222 189.177673 -122.37963867 194.125 C-122.14270002 195.80874222 -121.90701716 197.49266165 -121.67260742 199.17675781 C-121.33580823 201.59487635 -120.99452477 204.01232542 -120.65234375 206.4296875 C-120.54813614 207.1849472 -120.44392853 207.94020691 -120.33656311 208.71835327 C-119.82098648 212.62056559 -119.82098648 212.62056559 -118.4609375 216.28125 C-105.5909375 216.28125 -92.7209375 216.28125 -79.4609375 216.28125 C-80.32538767 213.98375112 -80.32538767 213.98375112 -83.1484375 213.28125 C-93.57156538 206.98804071 -96.66900157 190.44899372 -99.4609375 179.28125 C-107.7109375 179.28125 -115.9609375 179.28125 -124.4609375 179.28125 Z M-52.4609375 179.28125 C-52.61651123 179.99667969 -52.77208496 180.71210938 -52.93237305 181.44921875 C-53.65527574 184.73026846 -54.40163867 188.00556025 -55.1484375 191.28125 C-55.39271484 192.40660156 -55.63699219 193.53195312 -55.88867188 194.69140625 C-57.37597716 201.13012026 -58.91951282 207.27319558 -63.4609375 212.28125 C-65.79565556 213.71386234 -67.81922795 214.45247838 -70.4609375 215.28125 C-70.4609375 215.61125 -70.4609375 215.94125 -70.4609375 216.28125 C-59.9009375 216.28125 -49.3409375 216.28125 -38.4609375 216.28125 C-37.69602387 210.16194099 -37.3714823 207.0808958 -38.421875 201.41015625 C-38.75832031 199.56067383 -38.75832031 199.56067383 -39.1015625 197.67382812 C-39.34390625 196.40990234 -39.58625 195.14597656 -39.8359375 193.84375 C-40.07054687 192.55275391 -40.30515625 191.26175781 -40.546875 189.93164062 C-41.11039696 184.20336298 -41.11039696 184.20336298 -43.4609375 179.28125 C-44.98021788 179.20945036 -46.50261232 179.19732993 -48.0234375 179.21875 C-48.84972656 179.22777344 -49.67601562 179.23679688 -50.52734375 179.24609375 C-51.48447266 179.26349609 -51.48447266 179.26349609 -52.4609375 179.28125 Z M102.5390625 180.28125 C102.05663086 181.1333606 102.05663086 181.1333606 101.56445312 182.00268555 C95.83656885 192.10717184 90.11649784 202.18734218 83.8671875 211.98046875 C82.37241764 214.12717147 82.37241764 214.12717147 82.5390625 216.28125 C88.1490625 216.28125 93.7590625 216.28125 99.5390625 216.28125 C100.1117085 211.95828402 100.68236977 207.63514961 101.24804688 203.3112793 C101.44090246 201.84172624 101.63489908 200.37232244 101.83007812 198.90307617 C102.11110816 196.78603107 102.38797289 194.66847561 102.6640625 192.55078125 C102.83164062 191.27823486 102.99921875 190.00568848 103.171875 188.69458008 C103.47807045 185.84822468 103.61544641 183.13848564 103.5390625 180.28125 C103.2090625 180.28125 102.8790625 180.28125 102.5390625 180.28125 Z M-118.4609375 220.28125 C-117.8215625 224.839375 -117.1821875 229.3975 -116.5234375 234.09375 C-116.32371338 235.52823486 -116.12398926 236.96271973 -115.91821289 238.44067383 C-115.75828857 239.57013428 -115.59836426 240.69959473 -115.43359375 241.86328125 C-115.27125244 243.02061768 -115.10891113 244.1779541 -114.94165039 245.37036133 C-114.53055786 248.33476742 -114.53055786 248.33476742 -113.4609375 251.28125 C-102.2409375 251.28125 -91.0209375 251.28125 -79.4609375 251.28125 C-79.4609375 241.05125 -79.4609375 230.82125 -79.4609375 220.28125 C-92.3309375 220.28125 -105.2009375 220.28125 -118.4609375 220.28125 Z M-74.4609375 220.28125 C-74.4609375 230.51125 -74.4609375 240.74125 -74.4609375 251.28125 C-66.2109375 251.28125 -57.9609375 251.28125 -49.4609375 251.28125 C-48.17657407 247.18861573 -46.89393991 243.09552284 -45.61572266 239.00097656 C-45.18021876 237.60775381 -44.74369987 236.21484792 -44.30615234 234.82226562 C-43.67800087 232.82243643 -43.05348886 230.82150223 -42.4296875 228.8203125 C-42.05263672 227.61584473 -41.67558594 226.41137695 -41.28710938 225.17041016 C-40.36929226 222.46158974 -40.36929226 222.46158974 -40.4609375 220.28125 C-51.6809375 220.28125 -62.9009375 220.28125 -74.4609375 220.28125 Z M82.5390625 220.28125 C82.5390625 230.51125 82.5390625 240.74125 82.5390625 251.28125 C86.4990625 251.28125 90.4590625 251.28125 94.5390625 251.28125 C95.86927407 245.20028282 96.88480929 239.14054857 97.6640625 232.96875 C97.75155762 232.28748047 97.83905273 231.60621094 97.92919922 230.90429688 C98.36889266 227.30535737 98.5390625 223.92443881 98.5390625 220.28125 C93.2590625 220.28125 87.9790625 220.28125 82.5390625 220.28125 Z M77.5390625 221.28125 C76.00076967 223.65888912 74.51056147 226.05011389 73.0390625 228.46875 C68.95536743 235.1094069 64.66544636 241.54422086 60.15625 247.90234375 C58.44536274 249.93966015 58.44536274 249.93966015 58.5390625 251.28125 C65.1390625 251.28125 71.7390625 251.28125 78.5390625 251.28125 C78.5390625 241.38125 78.5390625 231.48125 78.5390625 221.28125 C78.2090625 221.28125 77.8790625 221.28125 77.5390625 221.28125 Z " fill="#69023B" transform="translate(185.4609375,74.71875)"/>
<path d="M0 0 C2.475 0.495 2.475 0.495 5 1 C5 2.65 5 4.3 5 6 C5.99 4.68 6.98 3.36 8 2 C9.32 2.33 10.64 2.66 12 3 C11.125 8.75 11.125 8.75 10 11 C10.556875 10.505 11.11375 10.01 11.6875 9.5 C14.38162983 7.75245633 15.85375007 7.73781251 19 8 C19.375 10.1875 19.375 10.1875 19 13 C17.16038352 14.99022836 15.20813852 16.38989899 13 18 C15.64 18 18.28 18 21 18 C21.495 19.98 21.495 19.98 22 22 C19.62187171 23.50614792 17.24486886 24.88707906 14.6875 26.06640625 C8.9458531 28.71841694 3.27614448 31.35365453 0 37 C-0.85930348 41.05970148 -0.40280751 44.89302451 0 49 C0.15883343 50.81889898 0.31627053 52.63792019 0.47265625 54.45703125 C0.81051549 58.31540294 1.17835857 62.16943396 1.5625 66.0234375 C1.91418476 69.69826849 2.09887796 73.30443613 2 77 C3.09231934 76.51144531 4.18463867 76.02289063 5.31005859 75.51953125 C10.57774264 73.56686641 15.47271503 73.5934376 21.0390625 73.6875 C22.75798203 73.70224365 22.75798203 73.70224365 24.5116272 73.71728516 C46.56603972 74.02005208 68.61585003 75.2676803 90.64550781 76.29101562 C113.50660939 77.34825134 136.33836023 78.19343997 159.2265625 78.25 C160.67711092 78.25776459 160.67711092 78.25776459 162.15696335 78.26568604 C164.87644347 78.27731578 167.59545871 78.27431036 170.31494141 78.265625 C171.11060642 78.26958282 171.90627144 78.27354065 172.72604752 78.27761841 C177.18279626 78.2403125 180.84312149 77.8049366 185 76 C187.30649848 73.71368286 187.30649848 73.71368286 189.25 70.8125 C189.81460938 70.0222644 189.81460938 70.0222644 190.390625 69.21606445 C191.61292586 67.48991631 192.8083547 65.74742866 194 64 C194.40798828 63.40928711 194.81597656 62.81857422 195.23632812 62.20996094 C201.55372635 53.04034145 207.35464707 43.59406039 213 34 C214.14331641 32.0610137 215.28880963 30.12330751 216.4375 28.1875 C217.11619141 27.03314453 217.11619141 27.03314453 217.80859375 25.85546875 C219 24 219 24 221 22 C223.09375 21.76953125 223.09375 21.76953125 225.5 21.8125 C226.69109375 21.82216797 226.69109375 21.82216797 227.90625 21.83203125 C230 22 230 22 232 23 C231.24610923 51.08243103 224.03064701 78.45726172 215.8125 105.1875 C215.4918457 106.26306152 215.17119141 107.33862305 214.84082031 108.44677734 C214.52854492 109.42727051 214.21626953 110.40776367 213.89453125 111.41796875 C213.62487549 112.28188232 213.35521973 113.1457959 213.07739258 114.03588867 C212 116 212 116 210.20727539 116.95581055 C207.09331937 117.01815166 205.44804982 115.88691823 202.7890625 114.2890625 C201.29246094 113.41121094 201.29246094 113.41121094 199.765625 112.515625 C198.72921875 111.89171875 197.6928125 111.2678125 196.625 110.625 C194.58056718 109.40038986 192.53122021 108.18393868 190.4765625 106.9765625 C189.56986816 106.43080566 188.66317383 105.88504883 187.72900391 105.32275391 C182.38869207 102.73429358 178.42936072 102.82740344 172.7890625 104.3984375 C171.62632812 104.71296875 170.46359375 105.0275 169.265625 105.3515625 C167.46351563 105.85816406 167.46351563 105.85816406 165.625 106.375 C163.24349299 107.03338639 160.86070394 107.68715565 158.4765625 108.3359375 C157.42549316 108.63032715 156.37442383 108.9247168 155.29150391 109.22802734 C151.58225631 110.09797549 147.78047811 110.52744024 144 111 C143.67 118.26 143.34 125.52 143 133 C112.99336217 129.04846174 82.9890946 125.08278015 53 121 C53.74830078 122.57007813 53.74830078 122.57007813 54.51171875 124.171875 C57.97270107 131.45008086 61.42460577 138.73122348 64.7890625 146.0546875 C72.61890275 163.08378184 80.77870346 179.93730679 89.02114868 196.77006531 C89.43827118 197.62195938 89.85539368 198.47385345 90.28515625 199.3515625 C90.90129288 200.60976555 90.90129288 200.60976555 91.52987671 201.89338684 C96.10094675 211.23625335 100.58800064 220.61856723 105.04345703 230.01708984 C105.92520644 231.84495322 106.84942059 233.65216971 107.77734375 235.45703125 C109 238 109 238 109 240 C113.47871789 240.17977986 117.9579539 240.34250096 122.4375 240.5 C123.13074371 240.52533813 123.82398743 240.55067627 124.53823853 240.57678223 C133.7253152 240.90465399 142.8856765 241.02123957 152.078125 240.890625 C153.00291153 240.87999023 153.92769806 240.86935547 154.88050842 240.85839844 C160.40199606 240.7950446 160.40199606 240.7950446 165.9225769 240.67993164 C168.50451219 240.61380737 171.08540822 240.57786904 173.66796875 240.546875 C174.43751892 240.51789124 175.20706909 240.48890747 175.99993896 240.45904541 C179.98278942 240.43927691 181.7975565 240.84552835 185.0012207 243.29003906 C187.532501 246.72196911 187.40867551 248.83150981 187 253 C172.86457362 261.42196293 158.56436449 267.70989112 143 273 C141.87464844 273.38430176 140.74929688 273.76860352 139.58984375 274.16455078 C98.70589146 288 98.70589146 288 88 288 C87.95512451 287.02651611 87.91024902 286.05303223 87.86401367 285.05004883 C87.69324599 281.4244434 87.50444795 277.79995965 87.31030273 274.17553711 C87.22891227 272.60937748 87.15235635 271.04295858 87.08081055 269.47631836 C86.97687045 267.21902622 86.85534007 264.96325063 86.73046875 262.70703125 C86.70220505 262.01100296 86.67394135 261.31497467 86.64482117 260.59785461 C86.28525354 254.63463446 84.09533969 251.08751329 80.30078125 246.66796875 C79.57084961 245.81235352 79.57084961 245.81235352 78.82617188 244.93945312 C78.32666016 244.36130859 77.82714844 243.78316406 77.3125 243.1875 C76.54583008 242.2912793 76.54583008 242.2912793 75.76367188 241.37695312 C74.51238181 239.91516567 73.25664027 238.45719067 72 237 C70.91460937 237.55429687 69.82921875 238.10859375 68.7109375 238.6796875 C67.26573404 239.41167367 65.82041542 240.14343248 64.375 240.875 C63.66214844 241.23980469 62.94929688 241.60460937 62.21484375 241.98046875 C61.51230469 242.33496094 60.80976563 242.68945312 60.0859375 243.0546875 C59.1276001 243.54171143 59.1276001 243.54171143 58.14990234 244.03857422 C55.49250919 245.2269474 52.76454514 246.09324474 50 247 C49.73992661 246.22786667 49.47985321 245.45573334 49.2118988 244.66020203 C46.7297179 237.29242867 44.24491742 229.925546 41.75735378 222.55958843 C40.47934577 218.77497333 39.20226446 214.9900514 37.92749023 211.2043457 C36.6953911 207.54551209 35.4606597 203.88757592 34.22422981 200.23020363 C33.7386216 198.79233506 33.25391522 197.35416161 32.77010918 195.91568565 C30.23320236 188.37540813 27.61698642 180.89371779 24.6847229 173.49563599 C21.6647362 165.83637231 20.05376903 159.56317524 21.5625 151.3125 C21.68947266 150.39662109 21.81644531 149.48074219 21.94726562 148.53710938 C22.25619421 146.35172569 22.62137449 144.17439221 23 142 C20.69 142 18.38 142 16 142 C15.34 137.71 14.68 133.42 14 129 C14 132.96 14 136.92 14 141 C11.60408962 141.02712351 9.20849043 141.0468982 6.8125 141.0625 C6.13896484 141.07087891 5.46542969 141.07925781 4.77148438 141.08789062 C1.01376451 141.10622097 -2.33439829 140.73757804 -6 140 C-7.83983367 139.80659838 -9.68279142 139.64148779 -11.52734375 139.5 C-12.56697266 139.4175 -13.60660156 139.335 -14.67773438 139.25 C-15.75345703 139.1675 -16.82917969 139.085 -17.9375 139 C-30.33034267 138.04613117 -30.33034267 138.04613117 -36 137 C-36.66 137 -37.32 137 -38 137 C-39.7092566 136.84308464 -41.41751321 136.67512685 -43.125 136.5 C-44.03507813 136.4071875 -44.94515625 136.314375 -45.8828125 136.21875 C-46.58148438 136.1465625 -47.28015625 136.074375 -48 136 C-45.375 131.125 -45.375 131.125 -42 130 C-41.29776763 128.6850506 -40.6341518 127.34910108 -40 126 C-38.59545898 124.45800781 -38.59545898 124.45800781 -36.99609375 122.953125 C-30.71021728 116.60114984 -26.32124865 111.18267369 -26.164505 101.98554993 C-26.1836219 100.53670662 -26.1836219 100.53670662 -26.203125 99.05859375 C-26.17321774 96.92719603 -26.1398091 94.79584515 -26.10327148 92.66455078 C-26.09182098 91.5681427 -26.08037048 90.47173462 -26.068573 89.34210205 C-25.95582976 83.84723647 -25.56101925 78.37589437 -25.17578125 72.89453125 C-25.03247839 70.71684445 -24.88990007 68.53910984 -24.74804688 66.36132812 C-24.52937686 63.04752173 -24.3070315 59.73410684 -24.07592773 56.42114258 C-23.84879424 53.14203591 -23.63607529 49.86225499 -23.42578125 46.58203125 C-23.31657097 45.0931414 -23.31657097 45.0931414 -23.20515442 43.57417297 C-22.9090002 38.77632804 -22.83783781 35.4074249 -25 31 C-24.86946907 22.77655134 -21.92553668 15.58912283 -19 8 C-17.02 8 -15.04 8 -13 8 C-11.53273202 11.81489674 -12.56663581 14.29011622 -14 18 C-6.43078242 13.82920664 -3.63703865 7.55044802 0 0 Z " fill="#FBC300" transform="translate(273,81)"/>
<path d="M0 0 C9.88631024 6.96057433 16.61004976 17.76737595 23.6171875 27.41015625 C26.5555483 31.45019909 29.56260872 35.4284923 32.625 39.375 C33.40746094 40.39207031 34.18992187 41.40914062 34.99609375 42.45703125 C36.2450539 44.06958283 37.50497994 45.67383567 38.78515625 47.26171875 C40.76569152 49.80496877 41.99556337 51.70205528 42.50390625 54.9140625 C41.91260355 59.21539716 39.73043494 61.49636214 36.875 64.5625 C35.86268117 65.69882911 34.85224115 66.83683496 33.84375 67.9765625 C33.36035156 68.51700195 32.87695312 69.05744141 32.37890625 69.61425781 C30.03926391 72.29929246 28.05120759 75.17622668 26.0625 78.125 C23.09519244 77.79826276 22.11111563 77.17621838 20.01953125 74.97265625 C19.31183594 74.05355469 18.60414063 73.13445312 17.875 72.1875 C14.03494722 67.30942301 10.01885516 62.68528121 5.8125 58.12109375 C4.0625 56.125 4.0625 56.125 3.0625 54.125 C2.91993333 63.51855936 3.33757668 72.76572209 4.0625 82.125 C0.93187415 82.63612259 -1.81928112 82.77358953 -4.9375 82.125 C-7.73402789 79.82601388 -9.74496982 76.9893506 -11.9375 74.125 C-21.97427479 62.96080668 -37.75315647 58.79334185 -51.9375 56.125 C-52.44826821 52.02210041 -52.94409735 47.91752117 -53.4375 43.8125 C-53.58058594 42.66458984 -53.72367188 41.51667969 -53.87109375 40.33398438 C-54.71707034 33.22375253 -55.1336224 26.28437557 -54.9375 19.125 C-54.34912354 19.58600098 -53.76074707 20.04700195 -53.15454102 20.52197266 C-48.18408765 24.33058472 -44.41060466 26.0082428 -38.10546875 25.578125 C-35.76055869 25.22450427 -35.76055869 25.22450427 -33.4375 23.5 C-31.08060777 19.76825397 -29.7741988 16.67845504 -30.2421875 12.2265625 C-29.9375 9.125 -29.9375 9.125 -27.5234375 6.640625 C-25.93402344 5.51914063 -25.93402344 5.51914063 -24.3125 4.375 C-23.26835937 3.61703125 -22.22421875 2.8590625 -21.1484375 2.078125 C-14.44780392 -1.99768618 -7.12599497 -4.00925761 0 0 Z " fill="#2450F8" transform="translate(204.9375,132.875)"/>
<path d="M0 0 C10.50721517 4.99193365 16.50794509 15.97800867 22.37988281 25.53295898 C24.25396725 28.52860453 25.5527159 30.29035226 28.5390625 32.28125 C34.58881178 32.53183133 40.04000117 30.58085746 45.5390625 28.28125 C49.13334486 37.94088385 48.68501597 48.8719939 44.5390625 58.28125 C39.79731105 68.11599375 39.79731105 68.11599375 35.5859375 70.2890625 C33.08393515 70.59442499 31.82488786 70.36953014 29.5390625 69.28125 C27.27008189 67.15755252 25.35580717 64.89694692 23.3984375 62.484375 C20.98570725 59.62559378 19.1310941 58.35885948 15.5390625 57.28125 C12.18816274 57.0692955 8.89053737 57.10241636 5.5390625 57.28125 C5.06726563 55.55841797 5.06726563 55.55841797 4.5859375 53.80078125 C3.25419142 48.95607104 1.90301415 44.11698779 0.5390625 39.28125 C0.25144043 38.2595874 0.25144043 38.2595874 -0.04199219 37.21728516 C-0.54629309 35.44396476 -1.06561702 33.6749363 -1.5859375 31.90625 C-1.87726563 30.90851563 -2.16859375 29.91078125 -2.46875 28.8828125 C-3.46975448 26.25813146 -4.6637629 24.42364458 -6.4609375 22.28125 C-6.44933594 23.10109375 -6.43773437 23.9209375 -6.42578125 24.765625 C-6.41675781 25.84328125 -6.40773437 26.9209375 -6.3984375 28.03125 C-6.38683594 29.09859375 -6.37523437 30.1659375 -6.36328125 31.265625 C-6.44583663 33.81493501 -6.71476192 35.86058591 -7.4609375 38.28125 C-8.7809375 38.28125 -10.1009375 38.28125 -11.4609375 38.28125 C-12.98828125 36.26953125 -12.98828125 36.26953125 -14.3984375 33.59375 C-18.22568911 26.61168097 -18.22568911 26.61168097 -24.7734375 22.46875 C-25.3303125 22.406875 -25.8871875 22.345 -26.4609375 22.28125 C-26.55375 23.51875 -26.55375 23.51875 -26.6484375 24.78125 C-27.69389967 29.28477937 -29.86550965 32.50782353 -32.4609375 36.28125 C-31.8009375 36.28125 -31.1409375 36.28125 -30.4609375 36.28125 C-30.4609375 36.94125 -30.4609375 37.60125 -30.4609375 38.28125 C-35.61141235 40.84504193 -39.58107921 42.71148353 -45.4609375 42.28125 C-46.4509375 42.77625 -46.4509375 42.77625 -47.4609375 43.28125 C-49.68288748 34.49264428 -51.62281968 24.23984961 -47.8359375 15.65625 C-45.66716981 12.06682612 -43.51045984 10.58015339 -39.4609375 9.28125 C-34.64251785 8.35332113 -30.24241398 7.89307941 -25.4609375 9.28125 C-25.1515625 8.4459375 -25.1515625 8.4459375 -24.8359375 7.59375 C-19.50975955 -1.36391292 -9.51486535 -2.7789448 0 0 Z " fill="#68003B" transform="translate(185.4609375,74.71875)"/>
<path d="M0 0 C2.24663501 0.13334249 4.49359792 0.25946225 6.74072266 0.38427734 C7.57732422 0.43447021 8.41392578 0.48466309 9.27587891 0.53637695 C15.97819671 0.88042772 22.64684485 0.87253733 29.35400391 0.77490234 C31.2105294 0.75331424 33.06705611 0.73183086 34.92358398 0.71044922 C37.73336676 0.67707953 40.54156252 0.6345694 43.35067749 0.56420898 C46.01207895 0.49777221 48.67245424 0.46198586 51.33447266 0.43115234 C52.13891312 0.40216858 52.94335358 0.37318481 53.77217102 0.34332275 C57.99710428 0.32333029 59.59233194 0.53541074 63.07861328 3.17431641 C65.57949296 6.60653258 65.46034587 8.73162057 65.05322266 12.88427734 C50.91779628 21.30624028 36.61758715 27.59416846 21.05322266 32.88427734 C19.92787109 33.2685791 18.80251953 33.65288086 17.64306641 34.04882812 C-23.24088589 47.88427734 -23.24088589 47.88427734 -33.94677734 47.88427734 C-34.60677734 36.33427734 -35.26677734 24.78427734 -35.94677734 12.88427734 C-33.47177734 13.87427734 -33.47177734 13.87427734 -30.94677734 14.88427734 C-27.37968101 15.37510525 -27.37968101 15.37510525 -23.94677734 13.88427734 C-22.39411141 11.45878507 -21.27539294 8.96819044 -20.09912109 6.34130859 C-16.02362976 -2.34846785 -8.25807834 -0.49088652 0 0 Z " fill="#700D46" transform="translate(394.94677734375,321.11572265625)"/>
<path d="M0 0 C4.89766661 0.4198 6.86290755 2.31391638 10 6 C15 13.15068493 15 13.15068493 15 16 C15.804375 15.979375 16.60875 15.95875 17.4375 15.9375 C20 16 20 16 21 17 C21.1875 20.4375 21.1875 20.4375 21 24 C19 26 19 26 16.98046875 26.375 C14.83878172 26.80188774 14.83878172 26.80188774 13.98828125 28.8125 C13.65376953 29.8953125 13.65376953 29.8953125 13.3125 31 C12.04986877 34.95013123 12.04986877 34.95013123 11 36 C10.92755947 38.01964199 10.91622812 40.04167124 10.9375 42.0625 C10.94652344 43.16722656 10.95554688 44.27195313 10.96484375 45.41015625 C10.97644531 46.26480469 10.98804688 47.11945313 11 48 C12.98 47.34 14.96 46.68 17 46 C16.53798225 51.35940594 15.89061601 55.33054337 13 60 C8.75149426 62.83233716 4.98965584 62.65183684 0 62 C-3.23939656 60.26460898 -5.42321134 58.57678866 -8 56 C-8.13140472 62.82939544 -7.76760722 69.46601186 -7 76.25 C-6.41397368 81.5242369 -5.86097674 86.68236047 -6 92 C-5.41734375 92.02578125 -4.8346875 92.0515625 -4.234375 92.078125 C12.20078254 93.21514848 25.40728558 100.64519576 37 112 C37.88171875 112.81404297 37.88171875 112.81404297 38.78125 113.64453125 C40 115 40 115 40 117 C29.94317636 117.20099436 20.06970174 116.69181162 10.05737305 115.828125 C7.67366981 115.6238146 5.28915505 115.4324882 2.90429688 115.2421875 C-4.52753069 114.62820728 -11.76785867 113.91414558 -19 112 C-19.42739159 91.2952518 -18.14178155 70.66442408 -17 50 C-13.37 50.66 -9.74 51.32 -6 52 C-6.22947811 49.76862737 -6.48445556 47.53986844 -6.75 45.3125 C-6.88921875 44.07113281 -7.0284375 42.82976562 -7.171875 41.55078125 C-8.07497192 37.67854023 -9.36321277 35.90722694 -12 33 C-12.309375 32.2575 -12.61875 31.515 -12.9375 30.75 C-13.89186844 28.71563406 -13.89186844 28.71563406 -16.5 28.375 C-17.325 28.25125 -18.15 28.1275 -19 28 C-21 26 -21 26 -21.25 23.5 C-21 21 -21 21 -19 19 C-17.7315625 19.0309375 -17.7315625 19.0309375 -16.4375 19.0625 C-11.9160174 18.98029123 -8.2034597 17.56929162 -4 16 C-4 15.34 -4 14.68 -4 14 C-4.99 14.33 -5.98 14.66 -7 15 C-5.99471631 12.98492462 -4.98577992 10.97204278 -3.96484375 8.96484375 C-3.62582031 8.29582031 -3.28679687 7.62679687 -2.9375 6.9375 C-2.59589844 6.26589844 -2.25429687 5.59429687 -1.90234375 4.90234375 C-0.88509619 2.85671686 -0.88509619 2.85671686 0 0 Z " fill="#F8C104" transform="translate(159,97)"/>
<path d="M0 0 C7.41459942 -0.02312883 14.82919111 -0.04091785 22.24381924 -0.05181217 C25.68640348 -0.05703982 29.12896312 -0.06413531 32.5715332 -0.07543945 C36.52555043 -0.08834235 40.47955756 -0.09322918 44.43359375 -0.09765625 C46.29605995 -0.10539818 46.29605995 -0.10539818 48.19615173 -0.11329651 C49.33725906 -0.11337204 50.47836639 -0.11344757 51.65405273 -0.11352539 C52.664431 -0.115746 53.67480927 -0.11796661 54.71580505 -0.12025452 C57 0 57 0 58 1 C58.12593198 3.93364274 58.18868066 6.84245679 58.203125 9.77734375 C58.20882507 10.65902725 58.21452515 11.54071075 58.22039795 12.44911194 C58.22986205 14.317869 58.23638751 16.18664286 58.24023438 18.05541992 C58.2499475 20.92200648 58.28096028 23.78787858 58.3125 26.65429688 C58.31902892 28.46614156 58.32427983 30.27799139 58.328125 32.08984375 C58.3404718 32.9513353 58.3528186 33.81282684 58.36553955 34.70042419 C58.35644531 37.11694336 58.35644531 37.11694336 58 41 C54.14124567 43.57250288 51.00021822 43.22583078 46.53515625 43.16796875 C44.83137461 43.17364537 43.12759752 43.18085414 41.42382812 43.18945312 C38.73941955 43.19363253 36.05654067 43.18742699 33.37231445 43.15454102 C30.779682 43.12764599 28.19025612 43.14441066 25.59765625 43.16796875 C24.39593529 43.13717476 24.39593529 43.13717476 23.16993713 43.10575867 C20.60073395 43.0755067 20.60073395 43.0755067 17 44 C15.02834861 46.23982952 14.18629577 48.20346267 13 51 C12.01 51 11.02 51 10 51 C7 45.25 7 45.25 7 43 C5.865625 42.855625 4.73125 42.71125 3.5625 42.5625 C0 42 0 42 -1 41 C-1.10109386 38.13904376 -1.13969428 35.30273943 -1.1328125 32.44140625 C-1.13376923 31.58191879 -1.13472595 30.72243134 -1.13571167 29.8368988 C-1.13639357 28.01520718 -1.13453861 26.19351315 -1.13037109 24.37182617 C-1.12502946 21.5779068 -1.13031239 18.78414867 -1.13671875 15.99023438 C-1.13605784 14.22395798 -1.13477642 12.45768168 -1.1328125 10.69140625 C-1.13483673 9.85178848 -1.13686096 9.01217072 -1.13894653 8.14710999 C-1.11495472 2.22990945 -1.11495472 2.22990945 0 0 Z " fill="#2351FA" transform="translate(200,26)"/>
<path d="M0 0 C1.19109375 0.02126953 1.19109375 0.02126953 2.40625 0.04296875 C3.2003125 0.04941406 3.994375 0.05585937 4.8125 0.0625 C6.90625 0.23046875 6.90625 0.23046875 8.90625 1.23046875 C8.15235923 29.31289978 0.93689701 56.68773047 -7.28125 83.41796875 C-7.6019043 84.49353027 -7.92255859 85.5690918 -8.25292969 86.67724609 C-8.56520508 87.65773926 -8.87748047 88.63823242 -9.19921875 89.6484375 C-9.46887451 90.51235107 -9.73853027 91.37626465 -10.01635742 92.26635742 C-11.09375 94.23046875 -11.09375 94.23046875 -12.87988281 95.18408203 C-16.0077538 95.24961969 -17.71597317 94.12165239 -20.41015625 92.5546875 C-21.92706055 91.68360352 -21.92706055 91.68360352 -23.47460938 90.79492188 C-24.52455078 90.17552734 -25.57449219 89.55613281 -26.65625 88.91796875 C-27.71005859 88.31017578 -28.76386719 87.70238281 -29.84960938 87.07617188 C-33.6580783 84.87178048 -37.43176236 82.67179384 -41.09375 80.23046875 C-40.05995415 76.84713689 -39.40315732 75.45147398 -36.46875 73.35546875 C-33.77353421 71.37778574 -33.77353421 71.37778574 -33.46875 67.91796875 C-34.28037438 63.12938492 -36.04437174 60.96595712 -39.09375 57.23046875 C-37.4445742 53.56171404 -35.15233461 50.45296287 -32.78125 47.23046875 C-23.52546011 34.44024426 -15.00364988 21.13665529 -7.1640625 7.43432617 C-3.08986705 0.34011596 -3.08986705 0.34011596 0 0 Z " fill="#6E0B44" transform="translate(496.09375,102.76953125)"/>
<path d="M0 0 C2.475 0.495 2.475 0.495 5 1 C5 2.65 5 4.3 5 6 C5.99 4.68 6.98 3.36 8 2 C9.32 2.33 10.64 2.66 12 3 C11.125 8.75 11.125 8.75 10 11 C10.556875 10.505 11.11375 10.01 11.6875 9.5 C14.38162983 7.75245633 15.85375007 7.73781251 19 8 C19.375 10.1875 19.375 10.1875 19 13 C17.16038352 14.99022836 15.20813852 16.38989899 13 18 C15.64 18 18.28 18 21 18 C21.495 19.98 21.495 19.98 22 22 C19.62187171 23.50614792 17.24486886 24.88707906 14.6875 26.06640625 C8.9458531 28.71841694 3.27614448 31.35365453 0 37 C-0.85927469 41.05956547 -0.40319718 44.89320815 0 49 C0.15879442 50.80718293 0.31623554 52.61448506 0.47265625 54.421875 C0.72935284 57.33976481 0.99429236 60.25564216 1.28686523 63.17016602 C2.34140886 73.71280016 2.34140886 73.71280016 2 78 C-0.8125 80.5625 -0.8125 80.5625 -2.74609375 82.0234375 C-5.70693308 84.61994478 -7.98382403 87.57069137 -10.375 90.6875 C-11.07435669 91.59568481 -11.07435669 91.59568481 -11.7878418 92.5222168 C-12.73005512 93.74789053 -13.67122085 94.97437031 -14.61132812 96.20166016 C-16.74164649 98.96043742 -18.92711574 101.66964246 -21.125 104.375 C-21.84945312 105.26960938 -22.57390625 106.16421875 -23.3203125 107.0859375 C-23.87460938 107.71757812 -24.42890625 108.34921875 -25 109 C-25.33 109 -25.66 109 -26 109 C-26.79470235 104.27843256 -27.04610201 99.99869013 -26.71459961 95.22607422 C-26.62798569 93.92137177 -26.54137177 92.61666931 -26.45213318 91.27243042 C-26.40318846 90.58515743 -26.35424374 89.89788445 -26.30381584 89.189785 C-26.14993747 87.02076944 -26.0059764 84.85129379 -25.86463928 82.681427 C-25.46133799 76.51696752 -25.04023981 70.3537631 -24.61303711 64.19091797 C-24.35161788 60.40982366 -24.10144308 56.62811534 -23.85791206 52.84582901 C-23.76304332 51.40945841 -23.66374958 49.97337278 -23.55988884 48.53762436 C-23.41479011 46.53085814 -23.2850723 44.52299781 -23.15600586 42.51513672 C-23.07748886 41.3748703 -22.99897186 40.23460388 -22.91807556 39.05978394 C-23.00370692 35.86155064 -23.75002079 33.90658707 -25 31 C-24.86946907 22.77655134 -21.92553668 15.58912283 -19 8 C-17.02 8 -15.04 8 -13 8 C-11.53273202 11.81489674 -12.56663581 14.29011622 -14 18 C-6.43078242 13.82920664 -3.63703865 7.55044802 0 0 Z " fill="#E67500" transform="translate(273,81)"/>
<path d="M0 0 C3.52255907 1.10079971 5.98138361 2.71053704 8.8125 5 C12.77841682 8.09719218 16.07556894 9.12063731 21 10 C20.505 9.443125 20.01 8.88625 19.5 8.3125 C17.75245633 5.61837017 17.73781251 4.14624993 18 1 C20.25390625 0.28515625 20.25390625 0.28515625 23 0 C26.16600009 2.14116769 28.50359113 5.12253459 31 8 C31.58652344 8.62519531 32.17304687 9.25039062 32.77734375 9.89453125 C35.83059612 13.44048449 37.23659609 16.22922603 37.75 20.88671875 C39.25152513 30.88015197 42.62464006 40.4395303 45.625 50.0625 C46.54199321 53.01722917 47.4567157 55.97260743 48.36654663 58.92955017 C48.92965319 60.75837264 49.49705755 62.58587862 50.06924438 64.41188049 C50.32305878 65.23381393 50.57687317 66.05574738 50.83837891 66.90258789 C51.0632901 67.62362198 51.28820129 68.34465607 51.51992798 69.08753967 C52 71 52 71 52 74 C41.82618876 74.25975688 32.02697678 73.88177509 22 72 C20.05789023 70.05789023 20.49800992 66.48678226 20.28125 63.82421875 C20.21844849 63.10265091 20.15564697 62.38108307 20.09094238 61.63764954 C19.88969405 59.32127687 19.69433976 57.00446181 19.5 54.6875 C19.3052313 52.38129429 19.10911595 50.07523862 18.90905762 47.76948547 C18.78452007 46.33290013 18.66305933 44.89604392 18.54504395 43.45890808 C18.17098741 38.65158585 18.17098741 38.65158585 17 34 C9.64962551 28.74973251 -0.35929956 29.21440944 -9 29 C-9.33 27.35 -9.66 25.7 -10 24 C-7.69 23.34 -5.38 22.68 -3 22 C-3.56589844 21.75765625 -4.13179687 21.5153125 -4.71484375 21.265625 C-5.81505859 20.76289063 -5.81505859 20.76289063 -6.9375 20.25 C-7.66839844 19.92515625 -8.39929687 19.6003125 -9.15234375 19.265625 C-11 18 -11 18 -11.81640625 15.921875 C-11.87699219 15.28765625 -11.93757813 14.6534375 -12 14 C-11 13 -11 13 -9.15234375 12.90234375 C-7.1015625 12.93489583 -5.05078125 12.96744792 -3 13 C-4.65 11.68 -6.3 10.36 -8 9 C-7.34 7.68 -6.68 6.36 -6 5 C-3.69 5.66 -1.38 6.32 1 7 C0.34 6.34 -0.32 5.68 -1 5 C-0.625 2.375 -0.625 2.375 0 0 Z " fill="#E77500" transform="translate(56,132)"/>
<path d="M0 0 C17.16 0 34.32 0 52 0 C52 12.21 52 24.42 52 37 C34.84 37 17.68 37 0 37 C0 24.79 0 12.58 0 0 Z " fill="#FCC400" transform="translate(166,254)"/>
<path d="M0 0 C0.98033203 0.27618164 1.96066406 0.55236328 2.97070312 0.83691406 C3.71255859 1.05057617 4.45441406 1.26423828 5.21875 1.484375 C5.817377 22.25894893 3.98999981 42.80566155 2.21875 63.484375 C0.89875 63.484375 -0.42125 63.484375 -1.78125 63.484375 C-4.42125 51.274375 -7.06125 39.064375 -9.78125 26.484375 C-8.41234916 34.69778003 -6.9243225 42.76950928 -5.10546875 50.87695312 C-4.24782737 54.81372053 -3.53529455 58.42611011 -3.78125 62.484375 C-11.85986415 62.58016884 -19.76465366 62.60951133 -27.78125 61.484375 C-28.80874976 58.40187573 -28.79095557 56.91314549 -28.48339844 53.7409668 C-28.39290222 52.77954269 -28.30240601 51.81811859 -28.20916748 50.82756042 C-28.05148895 49.27129692 -28.05148895 49.27129692 -27.890625 47.68359375 C-27.78534485 46.61446243 -27.6800647 45.54533112 -27.57159424 44.44380188 C-27.34619873 42.17972438 -27.11732374 39.915991 -26.88525391 37.65258789 C-26.53383635 34.19730503 -26.20191068 30.74051124 -25.87109375 27.28320312 C-25.64963119 25.08321284 -25.42701245 22.88333858 -25.203125 20.68359375 C-25.10610291 19.65215744 -25.00908081 18.62072113 -24.90911865 17.55802917 C-24.12316639 10.15715785 -22.6942955 4.47350714 -16.78125 -0.515625 C-10.87564331 -2.48416056 -5.85316806 -1.66482325 0 0 Z " fill="#2451F9" transform="translate(136.78125,145.515625)"/>
<path d="M0 0 C17.16 0 34.32 0 52 0 C52 10.56 52 21.12 52 32 C34.84 32 17.68 32 0 32 C0 21.44 0 10.88 0 0 Z " fill="#FBC200" transform="translate(166,294)"/>
<path d="M0 0 C4.26181976 0.20456735 8.50442896 0.40875931 12.7578125 0.6953125 C16.23744636 0.9208564 19.69323577 1.02692281 23.1796875 1.0546875 C35.18068924 1.39042843 35.18068924 1.39042843 38.5078125 4.33398438 C41.46947825 8.1943946 44 13.06427031 44 18 C44.763125 17.21625 45.52625 16.4325 46.3125 15.625 C49 13 49 13 52 11 C52.09765625 17.15234375 52.09765625 17.15234375 52 19 C51.505 19.495 51.505 19.495 51 20 C51.33 20 51.66 20 52 20 C52 25.28 52 30.56 52 36 C34.84 36 17.68 36 0 36 C0 24.12 0 12.24 0 0 Z " fill="#FBC300" transform="translate(166,215)"/>
<path d="M0 0 C14.19 0 28.38 0 43 0 C43 12.21 43 24.42 43 37 C28.81 37 14.62 37 0 37 C0 24.79 0 12.58 0 0 Z " fill="#FCC400" transform="translate(221,254)"/>
<path d="M0 0 C4.89766661 0.4198 6.86290755 2.31391638 10 6 C15 13.15068493 15 13.15068493 15 16 C15.804375 15.979375 16.60875 15.95875 17.4375 15.9375 C20 16 20 16 21 17 C21.1875 20.4375 21.1875 20.4375 21 24 C19 26 19 26 16.98046875 26.375 C14.83878172 26.80188774 14.83878172 26.80188774 13.98828125 28.8125 C13.65376953 29.8953125 13.65376953 29.8953125 13.3125 31 C12.04986877 34.95013123 12.04986877 34.95013123 11 36 C10.92755947 38.01964199 10.91622812 40.04167124 10.9375 42.0625 C10.94652344 43.16722656 10.95554688 44.27195313 10.96484375 45.41015625 C10.97644531 46.26480469 10.98804688 47.11945313 11 48 C12.98 47.34 14.96 46.68 17 46 C16.53798225 51.35940594 15.89061601 55.33054337 13 60 C8.75149426 62.83233716 4.98965584 62.65183684 0 62 C-3.23939656 60.26460898 -5.42321134 58.57678866 -8 56 C-8.99 56.495 -8.99 56.495 -10 57 C-10 55.35 -10 53.7 -10 52 C-8.68 52 -7.36 52 -6 52 C-6.22947811 49.76862737 -6.48445556 47.53986844 -6.75 45.3125 C-6.88921875 44.07113281 -7.0284375 42.82976562 -7.171875 41.55078125 C-8.07497192 37.67854023 -9.36321277 35.90722694 -12 33 C-12.309375 32.2575 -12.61875 31.515 -12.9375 30.75 C-13.89186844 28.71563406 -13.89186844 28.71563406 -16.5 28.375 C-17.325 28.25125 -18.15 28.1275 -19 28 C-21 26 -21 26 -21.25 23.5 C-21 21 -21 21 -19 19 C-17.7315625 19.0309375 -17.7315625 19.0309375 -16.4375 19.0625 C-11.9160174 18.98029123 -8.2034597 17.56929162 -4 16 C-4 15.34 -4 14.68 -4 14 C-4.99 14.33 -5.98 14.66 -7 15 C-5.99471631 12.98492462 -4.98577992 10.97204278 -3.96484375 8.96484375 C-3.62582031 8.29582031 -3.28679687 7.62679687 -2.9375 6.9375 C-2.59589844 6.26589844 -2.25429687 5.59429687 -1.90234375 4.90234375 C-0.88509619 2.85671686 -0.88509619 2.85671686 0 0 Z " fill="#D66D06" transform="translate(159,97)"/>
<path d="M0 0 C2.76302458 0.06636085 5.49375542 0.19544009 8.25 0.375 C8.99507812 0.41882813 9.74015625 0.46265625 10.5078125 0.5078125 C17.34603874 0.92225045 24.16799032 1.47446079 31 2 C31 11.24 31 20.48 31 30 C16.81 30 2.62 30 -12 30 C-12 10 -12 10 -6.5625 4.3125 C-4.74261443 3.15270064 -2.89532042 2.03192953 -1 1 C-0.67 0.67 -0.34 0.34 0 0 Z " fill="#FBC300" transform="translate(233,221)"/>
<path d="M0 0 C2.1171875 0.10766602 2.1171875 0.10766602 3.91796875 1.61157227 C6.45787255 5.07030432 8.0002892 7.53291605 8.8671875 11.79516602 C7.85730471 16.25548167 5.72318779 17.4392258 2.1171875 20.10766602 C1.8375415 20.77717285 1.55789551 21.44667969 1.26977539 22.13647461 C0.1171875 24.10766602 0.1171875 24.10766602 -2.35375977 25.17260742 C-3.37526123 25.43219238 -4.3967627 25.69177734 -5.44921875 25.95922852 C-6.57521484 26.25313477 -7.70121094 26.54704102 -8.86132812 26.84985352 C-10.04404297 27.14118164 -11.22675781 27.43250977 -12.4453125 27.73266602 C-13.60095703 28.03172852 -14.75660156 28.33079102 -15.94726562 28.63891602 C-19.25340184 29.48750975 -22.56500995 30.30601458 -25.8828125 31.10766602 C-26.77597168 31.32390625 -27.66913086 31.54014648 -28.58935547 31.76293945 C-32.13586599 32.58980464 -35.22247589 33.10766602 -38.8828125 33.10766602 C-38.73779234 30.58678375 -38.59179423 28.06596348 -38.4453125 25.54516602 C-38.40599609 24.8600293 -38.36667969 24.17489258 -38.32617188 23.46899414 C-37.89146947 16.0121759 -37.38556647 8.56014539 -36.8828125 1.10766602 C-32.1322709 0.96429948 -27.3817013 0.82191275 -22.63110352 0.68041992 C-21.01618666 0.63218446 -19.40127767 0.58368483 -17.78637695 0.53491211 C-15.4604696 0.46471226 -13.13453527 0.39547345 -10.80859375 0.32641602 C-9.73174065 0.29360535 -9.73174065 0.29360535 -8.63313293 0.26013184 C-4.31621882 0.14144926 -4.31621882 0.14144926 0 0 Z " fill="#E77600" transform="translate(454.8828125,158.892333984375)"/>
<path d="M0 0 C9.57 0.66 19.14 1.32 29 2 C29 15.86 29 29.72 29 44 C21.74 44 14.48 44 7 44 C4.71164411 35.39079861 3.06628125 26.87799695 1.8125 18.0625 C1.63525391 16.87076172 1.45800781 15.67902344 1.27539062 14.45117188 C0.5618149 9.54430561 0 4.97364912 0 0 Z " fill="#E77600" transform="translate(78,207)"/>
<path d="M0 0 C14.19 0 28.38 0 43 0 C41.69712587 3.25718532 40.6860927 5.73116346 38.8984375 8.6015625 C38.2947937 9.57706055 38.2947937 9.57706055 37.67895508 10.57226562 C36.33549913 12.68718374 34.96708375 14.78463937 33.59765625 16.8828125 C31.95523497 19.40700394 30.6535322 21.74278707 29.37109375 24.4921875 C27.51983204 28.06479781 26.41956785 29.81816212 23 32 C15.3304228 33.33339984 7.74349696 32.48396856 0 32 C0 21.44 0 10.88 0 0 Z " fill="#FAC200" transform="translate(221,294)"/>
<path d="M0 0 C7.92 0.33 15.84 0.66 24 1 C24 13.21 24 25.42 24 38 C17.07 38 10.14 38 3 38 C-1.14298056 20.34730022 -1.14298056 20.34730022 -1.125 11.375 C-1.12757813 10.08335937 -1.13015625 8.79171875 -1.1328125 7.4609375 C-1 4 -1 4 0 0 Z " fill="#FBC301" transform="translate(139,213)"/>
<path d="M0 0 C19.96810934 0.96355353 19.96810934 0.96355353 29 2 C28.7167944 15.43810563 27.1769352 27.93762456 24 41 C19.71 41 15.42 41 11 41 C9.42641836 35.80596311 7.8600444 30.60982793 6.30029297 25.41162109 C5.76873876 23.64377362 5.23522416 21.87651435 4.69970703 20.10986328 C3.93004751 17.56955848 3.16747637 15.02721772 2.40625 12.484375 C2.16563843 11.69569031 1.92502686 10.90700562 1.67712402 10.09442139 C0.62428483 6.55449755 0 3.72401715 0 0 Z " fill="#2450F8" transform="translate(110,210)"/>
<path d="M0 0 C2.69527439 3.48797417 4.7681716 7.13554372 6.75 11.0625 C7.07871094 11.68705078 7.40742188 12.31160156 7.74609375 12.95507812 C8.57749772 14.59859188 9.29674412 16.29770708 10 18 C9 21 9 21 6.6875 22.625 C3.4770326 25.46215724 2.47422947 28.02882238 0.9921875 31.9765625 C0 34 0 34 -3 36 C-8.82938765 36.11430172 -11.81183857 34.07872065 -15.86328125 30.2421875 C-19.83650005 26.07285004 -23.86191591 21.84205604 -27 17 C-25.6505291 12.95158729 -23.94755839 12.61006698 -20.21484375 10.64453125 C-19.35132042 10.18478157 -19.35132042 10.18478157 -18.47035217 9.71574402 C-16.63069646 8.73893802 -14.78434037 7.77564106 -12.9375 6.8125 C-11.68898883 6.15257036 -10.44093571 5.49177335 -9.19335938 4.83007812 C-6.13415716 3.20995418 -3.06880648 1.60187211 0 0 Z " fill="#E77600" transform="translate(372,301)"/>
<path d="M0 0 C1.58206422 0.00574487 3.16410406 0.01876032 4.74609375 0.03515625 C7.53046875 0.05578125 10.31484375 0.07640625 13.18359375 0.09765625 C13.18359375 10.65765625 13.18359375 21.21765625 13.18359375 32.09765625 C4.27359375 32.09765625 -4.63640625 32.09765625 -13.81640625 32.09765625 C-13.12962513 27.29018843 -12.50346812 23.65981788 -11.00390625 19.19921875 C-10.65070313 18.14347656 -10.2975 17.08773438 -9.93359375 16 C-9.56492188 14.91847656 -9.19625 13.83695312 -8.81640625 12.72265625 C-8.26339844 11.06556641 -8.26339844 11.06556641 -7.69921875 9.375 C-4.57911464 0.11717284 -4.57911464 0.11717284 0 0 Z " fill="#FBC300" transform="translate(149.81640625,293.90234375)"/>
<path d="M0 0 C6.93 0 13.86 0 21 0 C21 12.21 21 24.42 21 37 C15.72 37 10.44 37 5 37 C5 34.36 5 31.72 5 29 C4.6936248 26.61679203 4.32864334 24.24040269 3.90625 21.875 C3.68066406 20.59238281 3.45507812 19.30976563 3.22265625 17.98828125 C2.98191992 16.65882716 2.74103268 15.32940039 2.5 14 C2.25848897 12.63943382 2.01759829 11.27875737 1.77734375 9.91796875 C1.190983 6.6108941 0.59631594 3.30529408 0 0 Z " fill="#FDC400" transform="translate(142,254)"/>
<path d="M0 0 C5.52890494 0 10.13754659 0.17500717 15.5 1 C16.7271875 1.185625 17.954375 1.37125 19.21875 1.5625 C20.1365625 1.706875 21.054375 1.85125 22 2 C25.7869294 10.47245222 25.22048367 18.11806533 23 27 C15.41 27 7.82 27 0 27 C0 18.09 0 9.18 0 0 Z " fill="#F9C001" transform="translate(267,224)"/>
<path d="M0 0 C4.29 0 8.58 0 13 0 C14.03735804 3.03690326 15.05508051 6.07817032 16.0625 9.125 C16.35705078 9.9809375 16.65160156 10.836875 16.95507812 11.71875 C18.8411547 17.48792541 19.63477926 21.52989235 16.94921875 27.23046875 C12.30011957 34.4416102 12.30011957 34.4416102 9 36 C4.545 36.495 4.545 36.495 0 37 C0 24.79 0 12.58 0 0 Z " fill="#E67602" transform="translate(110,254)"/>
<path d="M0 0 C6.93 0 13.86 0 21 0 C21 11.88 21 23.76 21 36 C12.98998949 33.3299965 10.72455796 30.694461 6.9375 23.5 C3.41960346 16.15514107 0 8.23000569 0 0 Z " fill="#E77600" transform="translate(86,254)"/>
<path d="M0 0 C0.33 3.3 0.66 6.6 1 10 C2.98 9.34 4.96 8.68 7 8 C6.53798225 13.35940594 5.89061601 17.33054337 3 22 C-1.24850574 24.83233716 -5.01034416 24.65183684 -10 24 C-13.23939656 22.26460898 -15.42321134 20.57678866 -18 18 C-18.66 18.33 -19.32 18.66 -20 19 C-20 17.35 -20 15.7 -20 14 C-18.68 14 -17.36 14 -16 14 C-16.33 9.71 -16.66 5.42 -17 1 C-15.68 1.33 -14.36 1.66 -13 2 C-8.02902059 2.26630247 -4.42990761 0 0 0 Z " fill="#E37605" transform="translate(169,135)"/>
<path d="M0 0 C17.12821842 0.75788577 30.92248269 8.17034219 43 20 C43.5878125 20.54269531 44.175625 21.08539063 44.78125 21.64453125 C46 23 46 23 46 25 C37.59784035 25.11039334 29.35263176 24.95458649 21 24 C21.66 23.67 22.32 23.34 23 23 C16.81544408 14.65084951 10.60322503 7.0922142 1.46875 1.91015625 C0.9840625 1.60980469 0.499375 1.30945313 0 1 C0 0.67 0 0.34 0 0 Z " fill="#E37604" transform="translate(153,189)"/>
<path d="M0 0 C7.26 0 14.52 0 22 0 C16.91920641 10.88741483 10.62346256 20.89179898 4.21166992 31.03564453 C2.97637612 32.97313432 2.97637612 32.97313432 2 35 C1.34 35 0.68 35 0 35 C0 23.45 0 11.9 0 0 Z " fill="#F9C001" transform="translate(267,254)"/>
<path d="M0 0 C0.47050781 0.433125 0.94101563 0.86625 1.42578125 1.3125 C2.04839844 1.869375 2.67101562 2.42625 3.3125 3 C3.92738281 3.556875 4.54226562 4.11375 5.17578125 4.6875 C7.03131335 6.29201498 7.03131335 6.29201498 10 6 C11.88669495 4.69423497 11.88669495 4.69423497 13.6875 3 C14.31011719 2.443125 14.93273437 1.88625 15.57421875 1.3125 C16.04472656 0.879375 16.51523438 0.44625 17 0 C17.99 0.99 18.98 1.98 20 3 C18.55746343 6.36591866 16.66735273 8.51047079 14 11 C15.44253657 14.36591866 17.33264727 16.51047079 20 19 C19.34 20.32 18.68 21.64 18 23 C13.31297988 23 11.41128088 20.08946193 8 17 C5.69 19.31 3.38 21.62 1 24 C-0.32 23.01 -1.64 22.02 -3 21 C-1.55746343 17.63408134 0.33264727 15.48952921 3 13 C1.55746343 9.63408134 -0.33264727 7.48952921 -3 5 C-1.125 1.125 -1.125 1.125 0 0 Z " fill="#F1BE0D" transform="translate(220,35)"/>
<path d="M0 0 C2.13070127 2.13070127 2.53779236 3.18620396 3.40234375 6 C3.65161621 6.80042725 3.90088867 7.60085449 4.15771484 8.42553711 C4.41504395 9.27510986 4.67237305 10.12468262 4.9375 11 C5.33509521 12.29079468 5.33509521 12.29079468 5.74072266 13.60766602 C6.26356358 15.30810408 6.78381706 17.00934024 7.30126953 18.71142578 C7.87519543 20.59122361 8.46473996 22.46624601 9.05859375 24.33984375 C9.32800781 25.19707031 9.59742187 26.05429688 9.875 26.9375 C10.09929687 27.64777344 10.32359375 28.35804688 10.5546875 29.08984375 C11 31 11 31 11 35 C7.37 35 3.74 35 0 35 C0 23.45 0 11.9 0 0 Z " fill="#E17408" transform="translate(110,216)"/>
<path d="M0 0 C0.33 0 0.66 0 1 0 C1 3.3 1 6.6 1 10 C0.01 10 -0.98 10 -2 10 C-2.33 12.64 -2.66 15.28 -3 18 C-3.99 18 -4.98 18 -6 18 C-6.33 21.3 -6.66 24.6 -7 28 C-7.66 28 -8.32 28 -9 28 C-9.474375 27.175 -9.94875 26.35 -10.4375 25.5 C-10.953125 24.675 -11.46875 23.85 -12 23 C-12.99 23 -13.98 23 -15 23 C-13.66722489 19.32180203 -12.02767387 16.36290569 -9.75 13.1875 C-9.13382812 12.32769531 -8.51765625 11.46789062 -7.8828125 10.58203125 C-7.26148438 9.72996094 -6.64015625 8.87789062 -6 8 C-5.41992188 7.19949219 -4.83984375 6.39898437 -4.2421875 5.57421875 C-1.22821031 1.47550097 -1.22821031 1.47550097 0 0 Z " fill="#68013B" transform="translate(483,122)"/>
<path d="M0 0 C1.85408125 -0.02740022 3.70828469 -0.04657422 5.5625 -0.0625 C6.59503906 -0.07410156 7.62757813 -0.08570313 8.69140625 -0.09765625 C9.78324219 -0.06542969 10.87507812 -0.03320312 12 0 C13.19625 0 14.3925 0 15.625 0 C19.36090872 1.10693592 19.63616472 1.39502801 21.43359375 4.59765625 C22.12851825 6.07354353 22.79582419 7.56269485 23.4375 9.0625 C23.78748047 9.82111328 24.13746094 10.57972656 24.49804688 11.36132812 C25.35601731 13.23005825 26.18127614 15.1137453 27 17 C23.68986797 15.52883021 21.28709078 13.62080749 18.5625 11.25 C12.84604555 6.56746332 6.8095763 3.81775571 0 1 C0 0.67 0 0.34 0 0 Z " fill="#E37705" transform="translate(184,217)"/>
<path d="M0 0 C3.3 0 6.6 0 10 0 C9.71512349 2.04262517 9.42177949 4.08407027 9.125 6.125 C8.96257812 7.26195312 8.80015625 8.39890625 8.6328125 9.5703125 C8.02568583 12.86078915 7.13654367 15.85779103 6 19 C3.88565935 15.82848903 2.98044063 13.13567139 1.875 9.5 C1.52179688 8.3553125 1.16859375 7.210625 0.8046875 6.03125 C0 3 0 3 0 0 Z " fill="#2551F8" transform="translate(123,254)"/>
<path d="M0 0 C0.66 0 1.32 0 2 0 C2 3.3 2 6.6 2 10 C1.01 10.33 0.02 10.66 -1 11 C-1.33 13.31 -1.66 15.62 -2 18 C-2.99 18.33 -3.98 18.66 -5 19 C-5.66 18.67 -6.32 18.34 -7 18 C-7 21.3 -7 24.6 -7 28 C-7.99 28 -8.98 28 -10 28 C-9.34 27.67 -8.68 27.34 -8 27 C-8 23.7 -8 20.4 -8 17 C-7.01 16.67 -6.02 16.34 -5 16 C-4.67 13.69 -4.34 11.38 -4 9 C-3.01 8.67 -2.02 8.34 -1 8 C-0.67 5.36 -0.34 2.72 0 0 Z " fill="#C49CB3" transform="translate(484,123)"/>
<path d="M0 0 C1.52519276 0.08937803 3.04681929 0.24537146 4.5625 0.4375 C5.80193359 0.59025391 5.80193359 0.59025391 7.06640625 0.74609375 C7.70449219 0.82988281 8.34257812 0.91367188 9 1 C5.83047153 4.26008643 2.60062011 7.22237877 -1 10 C-1.02689216 8.52093108 -1.04634621 7.04172517 -1.0625 5.5625 C-1.07410156 4.73878906 -1.08570313 3.91507813 -1.09765625 3.06640625 C-1 1 -1 1 0 0 Z " fill="#F7BE01" transform="translate(222,220)"/>
<path d="M0 0 C1.66611905 -0.042721 3.33382885 -0.04063832 5 0 C6.81115956 1.81115956 6.38199448 4.61278227 6.5625 7.0625 C6.64628906 8.16722656 6.73007813 9.27195313 6.81640625 10.41015625 C6.87699219 11.26480469 6.93757812 12.11945313 7 13 C4.76932675 10.21325634 3.21142033 7.53022699 1.8125 4.25 C1.46832031 3.45078125 1.12414062 2.6515625 0.76953125 1.828125 C0.51558594 1.22484375 0.26164063 0.6215625 0 0 Z " fill="#2E4EE7" transform="translate(203,218)"/>
<path d="M0 0 C2.8125 0.3125 2.8125 0.3125 3.8125 1.3125 C3.88476502 3.16537502 3.8963122 5.02083878 3.875 6.875 C3.86597656 7.88691406 3.85695313 8.89882812 3.84765625 9.94140625 C3.83605469 10.72386719 3.82445313 11.50632813 3.8125 12.3125 C3.4825 12.3125 3.1525 12.3125 2.8125 12.3125 C2.4825 9.0125 2.1525 5.7125 1.8125 2.3125 C-1.1575 2.9725 -4.1275 3.6325 -7.1875 4.3125 C-4.81466641 1.39208943 -3.8274142 0.37523669 0 0 Z " fill="#982D24" transform="translate(77.1875,143.6875)"/>
<path d="M0 0 C0.99 0 1.98 0 3 0 C2.67 3.96 2.34 7.92 2 12 C1.34 11.67 0.68 11.34 0 11 C-0.81309902 7.08234111 -1.37553268 3.82092412 0 0 Z " fill="#413CB4" transform="translate(136,212)"/>
<path d="M0 0 C0.66 0.33 1.32 0.66 2 1 C1.67 1.99 1.34 2.98 1 4 C1.66 4 2.32 4 3 4 C3.66 5.65 4.32 7.3 5 9 C2.13275314 8.42655063 1.1385485 8.1385485 -1 6 C-1.1875 3.4375 -1.1875 3.4375 -1 1 C-0.67 0.67 -0.34 0.34 0 0 Z " fill="#E77600" transform="translate(139,117)"/>
</svg>
